{"title":"Brooklyn 2015 DVDSCR x264 AC3 TiTAN","uid":13018874,"size":1839249005,"categoryP":"video","categoryS":"movies","magnet":"?xt=urn:btih:9d0cc47ef3400dfbf6e47cffaf1c058782b855a9&amp;dn=Brooklyn+2015+DVDSCR+x264+AC3+TiTAN&amp;tr=udp%3A%2F%2Ftracker.leechers-paradise.org%3A6969&amp;tr=udp%3A%2F%2Fzer0day.ch%3A1337&amp;tr=udp%3A%2F%2Fopen.demonii.com%3A1337&amp;tr=udp%3A%2F%2Ftracker.coppersurfer.tk%3A6969&amp;tr=udp%3A%2F%2Fexodus.desync.com%3A6969","seeders":2,"leechers":0,"uploader":"makintos13","files":2,"time":1450322316,"description":"screens:\r\n \nhttp://imgmak.com/Kxc \nhttp://imgmak.com/Kxn \nhttp://imgmak.com/Kxr \nhttp://imgmak.com/KxB \nhttp://imgmak.com/KxI \nhttp://imgmak.com/Kxq\r\n\r\n \nhttp://www.imdb.com/title/tt2381111/\r\n\r\nSource: DVD iso\r\n\r\nSource was small low bitrate iso.. not perfect but watchable Enjoy\r\n\r\nGeneral\r\n\r\nFormat                                   : Matroska\r\nFormat version                           : Version 2\r\nFile size                                : 1.71 GiB\r\nDuration                                 : 1h 51mn\r\nOverall bit rate mode                    : Variable\r\nOverall bit rate                         : 2 194 Kbps\r\n\r\nVideo\r\nID                                       : 1\r\nFormat                                   : AVC\r\nFormat/Info                              : Advanced Video Codec\r\nFormat profile                           :   \r\nFormat settings, CABAC                   : Yes\r\nFormat settings, ReFrames                : 3 frames\r\nCodec ID                                 : V_MPEG4/ISO/AVC\r\nDuration                                 : 1h 51mn\r\nBit rate mode                            : Variable\r\nBit rate                                 : 2 000 Kbps\r\nMaximum bit rate                         : 40.0 Mbps\r\nWidth                                    : 720 pixels\r\nHeight                                   : 384 pixels\r\nDisplay aspect ratio                     : 1.85:1\r\nFrame rate mode                          : Constant\r\nFrame rate                               : 29.970 fps\r\nColor space                              : YUV\r\nChroma subsampling                       : 4:2:0\r\nBit depth                                : 8 bits\r\nScan type                                : Progressive\r\nBits/(Pixel*Frame)                       : 0.241\r\nStream size                              : 1.53 GiB (89%)\r\nDefault                                  : Yes\r\nForced                                   : No\r\nColor primaries                          : BT.709\r\nTransfer characteristics                 : BT.709\r\nMatrix coefficients                      : BT.709\r\n\r\nAudio\r\nID                                       : 2\r\nFormat                                   : AC-3\r\nFormat/Info                              : Audio Coding 3\r\nMode extension                           : CM (complete main)\r\nFormat settings, Endianness              : Big\r\nCodec ID                                 : A_AC3\r\nDuration                                 : 1h 51mn\r\nBit rate mode                            : Constant\r\nBit rate                                 : 192 Kbps\r\nChannel(s)                               : 2 channels\r\nChannel positions                        : Front: L R\r\nSampling rate                            : 48.0 KHz\r\nBit depth                                : 16 bits\r\nCompression mode                         : Lossy\r\nStream size                              : 153 MiB (9%)\r\nDefault                                  : Yes\r\nForced                                   : No","torrent":{"xt":"urn:btih:9d0cc47ef3400dfbf6e47cffaf1c058782b855a9","amp;dn":"Brooklyn+2015+DVDSCR+x264+AC3+TiTAN","amp;tr":["udp%3A%2F%2Ftracker.leechers-paradise.org%3A6969","udp%3A%2F%2Fzer0day.ch%3A1337","udp%3A%2F%2Fopen.demonii.com%3A1337","udp%3A%2F%2Ftracker.coppersurfer.tk%3A6969","udp%3A%2F%2Fexodus.desync.com%3A6969"],"infoHash":"9d0cc47ef3400dfbf6e47cffaf1c058782b855a9","infoHashBuffer":{"type":"Buffer","data":[157,12,196,126,243,64,13,251,246,228,124,255,175,28,5,135,130,184,85,169]},"announce":[],"urlList":[]}}